<?xml version="1.0" encoding="utf-8"?>
<svg id="master-artboard" viewBox="0 0 336 235.2" version="1.1" xmlns="http://www.w3.org/2000/svg" x="0px" y="0px" style="enable-background:new 0 0 336 235.2;" width="336px" height="235.1999969482422px">

<g id="bag" transform="matrix(0.9999999999999999, 0, 0, 0.9999999999999999, -2.842170943040401e-14, 0)">
	</g>

<g id="background">
</g>

<g id="small_elements">
</g>
<g id="eyeglass" transform="matrix(0.9999999999999999, 0, 0, 0.9999999999999999, -2.842170943040401e-14, 0)">
	</g><g id="computer" transform="matrix(0.9999999999999999, 0, 0, 0.9999999999999999, -2.842170943040401e-14, 0)">
	</g><g id="pencil" transform="matrix(0.9999999999999999, 0, 0, 0.9999999999999999, -2.842170943040401e-14, 0)">
	</g><g id="mug" transform="matrix(0.9999999999999999, 0, 0, 0.9999999999999999, -2.842170943040401e-14, 0)">
	</g><g transform="matrix(0.9999999999999999, 0, 0, 0.9999999999999999, -8.526512829121202e-14, 0)">
			<g>
				<path d="M 70.300003 96.900002 H 71.200003 V 100.200001 H 70.300003 V 96.900002 Z"/>
			</g>
		</g><g transform="matrix(0.9999999999999999, 0, 0, 0.9999999999999999, -1.1368683772161603e-13, 0)">
				<path d="M 64.599998 100 H 67.899998 V 100.9 H 64.599998 V 100 Z" transform="matrix(0.7072 0.707 -0.707 0.7072 90.4375 -17.3888)"/>
			</g><g transform="matrix(0.9999999999999999, 0, 0, 0.9999999999999999, -1.1368683772161603e-13, 0)">
				<path d="M 62.799999 104.599998 H 66.099999 V 105.499998 H 62.799999 V 104.599998 Z"/>
			</g><g transform="matrix(0.9999999999999999, 0, 0, 0.9999999999999999, -1.1368683772161603e-13, 0)">
				<path d="M 65.900002 107.900002 H 66.800002 V 111.200001 H 65.900002 V 107.900002 Z" transform="matrix(0.7071 0.7071 -0.7071 0.7071 96.9462 -14.8397)"/>
			</g><g transform="matrix(0.9999999999999999, 0, 0, 0.9999999999999999, -1.1368683772161603e-13, 0)">
				<path d="M 70.5 109.699997 H 71.4 V 112.999997 H 70.5 V 109.699997 Z"/>
			</g><g transform="matrix(0.9999999999999999, 0, 0, 0.9999999999999999, -1.1368683772161603e-13, 0)">
				<path d="M 73.800003 109 H 77.100003 V 109.9 H 73.800003 V 109 Z" transform="matrix(0.7071 0.7071 -0.7071 0.7071 99.4925 -21.3333)"/>
			</g><g transform="matrix(0.9999999999999999, 0, 0, 0.9999999999999999, -1.1368683772161603e-13, 0)">
				<path d="M 75.599998 104.400002 H 78.899998 V 105.300002 H 75.599998 V 104.400002 Z"/>
			</g><g transform="matrix(0.9999999999999999, 0, 0, 0.9999999999999999, -1.1368683772161603e-13, 0)">
				<path d="M 74.900002 98.699997 H 75.800002 V 101.999997 H 74.900002 V 98.699997 Z" transform="matrix(0.7072 0.7071 -0.7071 0.7072 92.9894 -23.8806)"/>
			</g><g transform="matrix(-0.9999521628105471, 0.009913251216000878, -0.009913251216000878, -0.9999521628105471, 60.40044989147185, 222.0006144986112)">
			<path d="M29.7,125h-0.4c-2.8,0-5.1-2.3-5.1-5.1v-18.3c0-2.4,1.9-4.3,4.3-4.3s4.3,1.9,4.3,4.3V116c0,2.1-1.4,3.6-3.2,3.6h-0.4&#10;&#9;&#9;&#9;&#9;c-1.8,0-2.9-1.3-2.9-3.6v-9.4h0.9v9.4c0,1,0.3,2.7,2,2.7h0.4c1.6,0,2.3-1.3,2.3-2.7v-14.4c0-1.9-1.5-3.4-3.4-3.4&#10;&#9;&#9;&#9;&#9;c-1.9,0-3.4,1.5-3.4,3.4v18.3c0,2.3,1.9,4.2,4.2,4.2h0.4c2.4,0,4.5-1.9,4.5-4.2v-13.4h0.9v13.4C35.1,122.6,32.6,125,29.7,125z"/>
		</g><g transform="matrix(0.9999999999999999, 0, 0, 0.9999999999999999, -8.526512829121202e-14, 0)">
			<g>
				<g>
					<path d="M 299.299988 167.600006 H 310.399988 V 168.500006 H 299.299988 V 167.600006 Z" class="st0" style="fill: rgb(35, 31, 32);"/>
				</g>
			</g>
			<g>
				<g>
					<g>
						<path d="M 307.29998779296875 164.3000030517578 L 306.70001220703125 165 L 310.1000061035156 168.10000610351562 L 306.70001220703125 171.1999969482422 L 307.29998779296875 171.89999389648438 L 311.5 168.10000610351562 Z" class="st0" style="fill: rgb(35, 31, 32);"/>
					</g>
				</g>
			</g>
		</g><g transform="matrix(0.9999999999999999, 0, 0, 0.9999999999999999, -1.1368683772161603e-13, 0)">
				<g>
					<path d="M 249.5 182.5 H 260.6 V 183.4 H 249.5 V 182.5 Z" class="st0" style="fill: rgb(35, 31, 32);"/>
				</g>
			</g><g transform="matrix(0.9999999999999999, 0, 0, 0.9999999999999999, -1.4210854715202004e-13, 0)">
					<g>
						<path d="M 252.60000610351562 186.8000030517578 L 253.3000030517578 186.10000610351562 L 249.89999389648438 183 L 253.3000030517578 179.89999389648438 L 252.60000610351562 179.1999969482422 L 248.5 183 Z" class="st0" style="fill: rgb(35, 31, 32);"/>
					</g>
				</g><g transform="matrix(0.9999999999999999, 0, 0, 0.9999999999999999, -1.1368683772161603e-13, 0)">
				<path d="M122.6,45.1c-0.1,0-0.3,0-0.4,0c-0.1-0.1-0.4-0.2-0.4-0.3v-3.2H99.1c-0.2,0-0.3,0.2-0.3,0V35c0-0.2,0.1-0.5,0.3-0.5&#10;&#9;&#9;&#9;&#9;&#9;h22.7V30c0-0.1,0.3-0.2,0.4-0.3c0.1-0.1,0.3-0.1,0.5,0l13.5,7.4c0.1,0.1,0.2,0.2,0.2,0.3c0,0.1-0.1,0.2-0.2,0.3l-13.4,7.4&#10;&#9;&#9;&#9;&#9;&#9;C122.7,45.1,122.7,45.1,122.6,45.1z"/>
			</g><g transform="matrix(0.9999999999999999, 0, 0, 0.9999999999999999, -1.1368683772161603e-13, 0)">
				<path d="M 34.400001525878906 192.3000030517578 L 47.79999923706055 200.60000610351562 L 47.79999923706055 195.5 L 70.80000305175781 195.5 L 70.80000305175781 189.5 L 47.79999923706055 189.5 L 47.79999923706055 183.6999969482422 Z" class="st1" style="fill: rgb(3, 174, 208);"/>
			</g><g transform="matrix(0.9999999999999999, 0, 0, 0.9999999999999999, -8.526512829121202e-14, 0)">
			<g>
				<path d="M260.4,157.1h-11.5c-0.3,0-0.5-0.2-0.5-0.5c0-0.3,0.2-0.5,0.5-0.5h11.5c0.3,0,0.5,0.2,0.5,0.5&#10;&#9;&#9;&#9;&#9;&#9;C260.8,156.9,260.6,157.1,260.4,157.1z"/>
			</g>
		</g><g transform="matrix(0.9999999999999999, 0, 0, 0.9999999999999999, -1.1368683772161603e-13, 0)">
				<path d="M254.6,162.8c-0.3,0-0.5-0.2-0.5-0.5v-11.5c0-0.3,0.2-0.5,0.5-0.5c0.3,0,0.5,0.2,0.5,0.5v11.5&#10;&#9;&#9;&#9;&#9;&#9;C255.1,162.6,254.9,162.8,254.6,162.8z"/>
			</g><g transform="matrix(0.9999999999999999, 0, 0, 0.9999999999999999, -8.526512829121202e-14, 0)">
			<g>
				<path d="M119.5,57.1H108c-0.3,0-0.5-0.2-0.5-0.5s0.2-0.5,0.5-0.5h11.5c0.3,0,0.5,0.2,0.5,0.5S119.8,57.1,119.5,57.1z"/>
			</g>
		</g><g transform="matrix(0.9999999999999999, 0, 0, 0.9999999999999999, -1.1368683772161603e-13, 0)">
				<path d="M113.7,62.8c-0.3,0-0.5-0.2-0.5-0.5V50.9c0-0.3,0.2-0.5,0.5-0.5c0.3,0,0.5,0.2,0.5,0.5v11.5&#10;&#9;&#9;&#9;&#9;&#9;C114.2,62.6,114,62.8,113.7,62.8z"/>
			</g><g transform="matrix(0.9999999999999999, 0, 0, 0.9999999999999999, -8.526512829121202e-14, 0)">
			<g>
				<g>
					<path d="M98.6,93.8c-0.1,0-0.1,0-0.2,0l-11-4.9c-0.4,0-0.7,0-1,0H36.8c-7,0-12.7-4.2-12.7-9.3V64.7c0-5.1,5.7-9.3,12.7-9.3&#10;&#9;&#9;&#9;&#9;&#9;&#9;h49.6c7,0,12.7,4.2,12.7,9.3v28.6c0,0.2-0.1,0.3-0.2,0.4C98.8,93.8,98.7,93.8,98.6,93.8z M87.5,87.9c0.1,0,0.1,0,0.2,0&#10;&#9;&#9;&#9;&#9;&#9;&#9;l10.5,4.6V64.7c0-4.6-5.3-8.3-11.8-8.3H36.8c-6.5,0-11.8,3.7-11.8,8.3v14.9c0,4.6,5.3,8.3,11.8,8.3h49.6&#10;&#9;&#9;&#9;&#9;&#9;&#9;C86.7,88,87,88,87.5,87.9C87.4,87.9,87.4,87.9,87.5,87.9z"/>
				</g>
			</g>
		</g><g transform="matrix(0.9999999999999999, 0, 0, 0.9999999999999999, -1.1368683772161603e-13, 0)">
				<path class="st2" d="M68.5,66.9H37.3c-0.2,0-0.3,0.2-0.3,0.5c0,0.3,0.2,0.5,0.3,0.5h31.2c0.2,0,0.3-0.2,0.3-0.5&#10;&#9;&#9;&#9;&#9;&#9;C68.9,67.2,68.7,66.9,68.5,66.9z" style="fill: rgb(51, 58, 74);"/>
			</g><g transform="matrix(0.9999999999999999, 0, 0, 0.9999999999999999, -1.1368683772161603e-13, 0)">
				<path class="st2" d="M85.8,66.9H71.3c-0.2,0-0.3,0.2-0.3,0.5c0,0.3,0.2,0.5,0.3,0.5h14.5c0.2,0,0.3-0.2,0.3-0.5&#10;&#9;&#9;&#9;&#9;&#9;C86.2,67.2,86,66.9,85.8,66.9z" style="fill: rgb(51, 58, 74);"/>
			</g><g transform="matrix(0.9999999999999999, 0, 0, 0.9999999999999999, -1.1368683772161603e-13, 0)">
				<path class="st2" d="M49,72.8H37.3c-0.2,0-0.3,0.2-0.3,0.5c0,0.3,0.2,0.5,0.3,0.5H49c0.2,0,0.3-0.2,0.3-0.5&#10;&#9;&#9;&#9;&#9;&#9;C49.4,73.1,49.2,72.8,49,72.8z" style="fill: rgb(51, 58, 74);"/>
			</g><g transform="matrix(0.9999999999999999, 0, 0, 0.9999999999999999, -1.1368683772161603e-13, 0)">
				<path class="st2" d="M85.8,72.8h-8.8c-0.2,0-0.3,0.2-0.3,0.5c0,0.3,0.2,0.5,0.3,0.5h8.8c0.2,0,0.3-0.2,0.3-0.5&#10;&#9;&#9;&#9;&#9;&#9;C86.2,73.1,86,72.8,85.8,72.8z" style="fill: rgb(51, 58, 74);"/>
			</g><g transform="matrix(0.9999999999999999, 0, 0, 0.9999999999999999, -1.1368683772161603e-13, 0)">
				<path class="st2" d="M74.4,72.8H52.3c-0.2,0-0.3,0.2-0.3,0.5c0,0.3,0.2,0.5,0.3,0.5h22.1c0.2,0,0.3-0.2,0.3-0.5&#10;&#9;&#9;&#9;&#9;&#9;C74.7,73.1,74.6,72.8,74.4,72.8z" style="fill: rgb(51, 58, 74);"/>
			</g><g transform="matrix(0.9999999999999999, 0, 0, 0.9999999999999999, -1.1368683772161603e-13, 0)">
				<path class="st2" d="M39.9,78.7h-2.6c-0.2,0-0.3,0.2-0.3,0.5c0,0.3,0.2,0.5,0.3,0.5h2.6c0.2,0,0.3-0.2,0.3-0.5&#10;&#9;&#9;&#9;&#9;&#9;C40.2,78.9,40.1,78.7,39.9,78.7z" style="fill: rgb(51, 58, 74);"/>
			</g><g transform="matrix(0.9999999999999999, 0, 0, 0.9999999999999999, -1.1368683772161603e-13, 0)">
				<path class="st2" d="M69.1,78.7H43.2c-0.2,0-0.3,0.2-0.3,0.5c0,0.3,0.2,0.5,0.3,0.5h25.9c0.2,0,0.3-0.2,0.3-0.5&#10;&#9;&#9;&#9;&#9;&#9;C69.4,78.9,69.3,78.7,69.1,78.7z" style="fill: rgb(51, 58, 74);"/>
			</g><g transform="matrix(0.9999999999999999, 0, 0, 0.9999999999999999, -1.1368683772161603e-13, 0)">
				<path class="st2" d="M85.8,78.7H72.2c-0.2,0-0.3,0.2-0.3,0.5c0,0.3,0.2,0.5,0.3,0.5h13.6c0.2,0,0.3-0.2,0.3-0.5&#10;&#9;&#9;&#9;&#9;&#9;C86.2,78.9,86,78.7,85.8,78.7z" style="fill: rgb(51, 58, 74);"/>
			</g><g transform="matrix(0.9999999999999999, 0, 0, 0.9999999999999999, -8.526512829121202e-14, 0)">
			<g>
				<g>
					<path d="M316.7,93.7h-71c-0.8,0-1.4-0.6-1.4-1.4V59c0-0.5,0.2-0.9,0.6-1.1c0.2-0.1,0.4-0.1,0.5,0l35.8,23.5L317,57.9&#10;&#9;&#9;&#9;&#9;&#9;&#9;c0.2-0.1,0.4-0.1,0.5,0c0.4,0.3,0.6,0.7,0.6,1.1v33.3C318.1,93.1,317.5,93.7,316.7,93.7z M245.3,58.9c0,0,0,0.1,0,0.2v33.3&#10;&#9;&#9;&#9;&#9;&#9;&#9;c0,0.3,0.2,0.5,0.5,0.5h71c0.3,0,0.5-0.2,0.5-0.5V59c0,0,0-0.1,0-0.1l-35.7,23.4c-0.2,0.1-0.4,0.1-0.5,0L245.3,58.9z"/>
				</g>
			</g>
		</g><g transform="matrix(0.9999999999999999, 0, 0, 0.9999999999999999, -1.1368683772161603e-13, 0)">
				<path d="M 245.199997 57.799999 H 317.699997 V 58.699999 H 245.199997 V 57.799999 Z"/>
			</g><g transform="matrix(0.9999999999999999, 0, 0, 0.9999999999999999, -1.1368683772161603e-13, 0)">
				<path d="M 257.5 68.599998 H 258.4 V 99.399998 H 257.5 V 68.599998 Z" transform="matrix(0.6031 0.7976 -0.7976 0.6031 169.3309 -172.4481)"/>
			</g><g transform="matrix(0.9999999999999999, 0, 0, 0.9999999999999999, -1.1368683772161603e-13, 0)">
				<path d="M 290 83.5 H 320.799999 V 84.4 H 290 V 83.5 Z" transform="matrix(0.7977 0.603 -0.603 0.7977 112.375 -167.153)"/>
			</g><g transform="matrix(0.9594372209895257, -0.28192438259418606, 0.28192438259418606, 0.9594372209895257, 3.5168504525464357, 65.24289676104058)">
			<path d="M212.4,27L212.4,27L212.4,27c-2.7,0-5.1-1.6-6.1-4.1c-0.1-0.1,0-0.3,0-0.4c0.1-0.1,0.2-0.2,0.4-0.2l3.7,0l-0.1-3.8h-3.7&#10;&#9;&#9;&#9;&#9;c-0.2,0-0.3-0.1-0.4-0.2c-0.1-0.1-0.1-0.3,0-0.4c1-2.5,3.4-4.1,6.1-4.1c2.6,0,4.9,1.5,6,3.9l20.3,0c1.1-2.4,3.4-3.9,6-3.9&#10;&#9;&#9;&#9;&#9;c2.7,0,5.1,1.6,6.2,4.1c0.1,0.1,0,0.3,0,0.4s-0.2,0.2-0.4,0.2l0,0l-3.7,0l-0.1,3.8l3.7,0c0.2,0,0.3,0.1,0.4,0.2&#10;&#9;&#9;&#9;&#9;c0.1,0.1,0.1,0.3,0,0.4c-1,2.5-3.3,4.1-6.1,4.1c-2.6,0-4.9-1.5-6-3.9h-20.3C217.3,25.5,215,27,212.4,27z M207.4,23.2&#10;&#9;&#9;&#9;&#9;c1,1.8,2.9,2.9,4.9,2.9l0,0.5v-0.5c2.3,0,4.3-1.4,5.2-3.6c0.1-0.2,0.2-0.3,0.4-0.3l21,0c0.2,0,0.4,0.1,0.4,0.3&#10;&#9;&#9;&#9;&#9;c0.9,2.2,2.9,3.6,5.3,3.6c2.1,0,3.9-1.1,4.9-2.8l-3.4,0c-0.1,0-0.2-0.1-0.3-0.1c-0.1-0.1-0.1-0.2-0.1-0.3l0.1-4.7&#10;&#9;&#9;&#9;&#9;c0-0.3,0.2-0.5,0.5-0.5l0,0l3.4,0c-1-1.8-2.9-2.9-5-2.9c-2.3,0-4.4,1.4-5.3,3.6c-0.1,0.2-0.2,0.3-0.4,0.3l-21,0&#10;&#9;&#9;&#9;&#9;c-0.2,0-0.4-0.1-0.4-0.3c-0.9-2.2-2.9-3.6-5.3-3.6c-2.1,0-4,1.1-5,2.9h3.4c0.3,0,0.5,0.2,0.5,0.5l0.1,4.7c0,0.1,0,0.2-0.1,0.3&#10;&#9;&#9;&#9;&#9;c-0.1,0.1-0.2,0.1-0.3,0.1L207.4,23.2z"/>
		</g><g transform="matrix(0.9999999999999999, 0, 0, 0.9999999999999999, -8.526512829121202e-14, 0)">
			<g>
				<path class="st1" d="M281.3,150.4C281.3,150.4,281.3,150.4,281.3,150.4c-5.7,0-10.3,4.6-10.3,10.3c0,0,0,0.1,0,0.1v0.1v19.4&#10;&#9;&#9;&#9;&#9;&#9;c0,0.1,0,0.1,0,0.2v1h0c0,5.8,4.7,10.3,10.3,10.3c5.7,0,10.3-4.6,10.3-10.3v-20.6C291.7,155.1,287,150.4,281.3,150.4z" style="fill: rgb(3, 174, 208);"/>
			</g>
		</g><g transform="matrix(1, 0, 0, 1, 0.37068967498149163, 25.206897898746664)">
				<path d="M 283.199988 158.5 A 1.9 1.9 0 0 1 281.299988 160.4 A 1.9 1.9 0 0 1 279.399988 158.5 A 1.9 1.9 0 0 1 281.299988 156.6 A 1.9 1.9 0 0 1 283.199988 158.5 Z" class="st2" style="fill: rgb(51, 58, 74);"/>
			</g><g transform="matrix(0.9999999999999999, 0, 0, 0.9999999999999999, -1.1368683772161603e-13, 0)">
				<path class="st0" d="M264.9,113.7c-2.5-1.8-5-2.4-7.5-1.6c-1.9,0.5-3,1.6-3,1.6l-0.6-0.7c0.1,0,5.2-4.8,11.7,0L264.9,113.7z" style="fill: rgb(35, 31, 32);"/>
			</g><g transform="matrix(0.9999999999999999, 0, 0, 0.9999999999999999, -1.1368683772161603e-13, 0)">
				<path class="st0" d="M259.6,118.7L259.6,118.7c-1.2,0-2.1-1-2.1-2.2c0-1.2,1-2.2,2.1-2.2c1.2,0,2.1,1,2.1,2.2&#10;&#9;&#9;&#9;&#9;&#9;C261.7,117.7,260.8,118.7,259.6,118.7z M259.6,115.3c-0.7,0-1.2,0.6-1.2,1.2c0,0.7,0.5,1.2,1.2,1.2c0.7,0,1.2-0.6,1.2-1.2&#10;&#9;&#9;&#9;&#9;&#9;C260.8,115.8,260.3,115.3,259.6,115.3z" style="fill: rgb(35, 31, 32);"/>
			</g><g transform="matrix(0.888625201428911, -0.4586381749882869, 0.4586381749882869, 0.888625201428911, -18.18636733855479, 76.7106566823413)">
			<path class="st2" d="M150.9,75.6c1.9-0.8,3.3-2.7,3.3-5c0-3-2.4-5.4-5.4-5.4c-3,0-5.4,2.4-5.4,5.4c0,2.2,1.4,4.1,3.3,5&#10;&#9;&#9;&#9;&#9;c-3.3,0.6-5.8,2.8-5.8,5.3c0,3.1,0,5.5,0,5.5h15.9v-5.5C156.7,78.3,154.2,76.2,150.9,75.6z" style="fill: rgb(51, 58, 74);"/>
		</g><g transform="matrix(0.9999999999999999, 0, 0, 0.9999999999999999, -8.526512829121202e-14, 0)">
			<g>
				<path d="M 191.899994 34.099998 A 22.5 22.5 0 0 1 169.399994 56.599998 A 22.5 22.5 0 0 1 146.899994 34.099998 A 22.5 22.5 0 0 1 169.399994 11.599998 A 22.5 22.5 0 0 1 191.899994 34.099998 Z" class="st3" style="fill: rgb(240, 125, 40);"/>
			</g>
		</g><g transform="matrix(0.9999999999999999, 0, 0, 0.9999999999999999, -1.1368683772161603e-13, 0)">
				<g>
					<g>
						<path class="st4" d="M169.4,48.9c-0.2,0-0.3-0.1-0.4-0.2c-0.4-0.6-9.2-14-9.2-19.1c0-5.3,4.3-9.6,9.6-9.6&#10;&#9;&#9;&#9;&#9;&#9;&#9;&#9;c5.3,0,9.6,4.3,9.6,9.6c0,5.1-8.8,18.5-9.2,19.1C169.7,48.8,169.5,48.9,169.4,48.9z M169.4,20.9c-4.8,0-8.6,3.9-8.6,8.6&#10;&#9;&#9;&#9;&#9;&#9;&#9;&#9;c0,4.3,6.9,15.3,8.6,18c1.7-2.7,8.6-13.7,8.6-18C178,24.8,174.1,20.9,169.4,20.9z" style="fill: rgb(255, 255, 255);"/>
					</g>
				</g>
			</g><g transform="matrix(0.9999999999999999, 0, 0, 0.9999999999999999, -1.4210854715202004e-13, 0)">
					<g>
						<path class="st4" d="M169.4,33.7c-2.3,0-4.1-1.8-4.1-4.1c0-2.3,1.8-4.1,4.1-4.1c2.3,0,4.1,1.8,4.1,4.1&#10;&#9;&#9;&#9;&#9;&#9;&#9;&#9;C173.5,31.8,171.6,33.7,169.4,33.7z M169.4,26.4c-1.8,0-3.2,1.4-3.2,3.2c0,1.8,1.4,3.2,3.2,3.2c1.8,0,3.2-1.4,3.2-3.2&#10;&#9;&#9;&#9;&#9;&#9;&#9;&#9;C172.5,27.8,171.1,26.4,169.4,26.4z" style="fill: rgb(255, 255, 255);"/>
					</g>
				</g><g transform="matrix(0.9338567641269326, 0.35765048428832574, -0.35765048428832574, 0.9338567641269326, 30.392961652927426, -98.53817710120478)">
			<g>
				<path d="M282.8,43.5h-2.6c-0.3,0-0.5-0.2-0.5-0.5v-2.5c-0.7-0.2-1.4-0.4-2-0.7l-1.8,1.8c-0.1,0.1-0.2,0.1-0.3,0.1c0,0,0,0,0,0&#10;&#9;&#9;&#9;&#9;&#9;c-0.1,0-0.2,0-0.3-0.1l-2.5-2.5c-0.1-0.1-0.1-0.2-0.1-0.3c0-0.1,0-0.2,0.1-0.3l1.8-1.8c-0.3-0.6-0.5-1.3-0.7-2h-2.5&#10;&#9;&#9;&#9;&#9;&#9;c-0.3,0-0.5-0.2-0.5-0.5v-2.6c0-0.3,0.2-0.5,0.5-0.5h2.5c0.2-0.7,0.4-1.4,0.7-2l-1.8-1.8c-0.1-0.1-0.1-0.2-0.1-0.3&#10;&#9;&#9;&#9;&#9;&#9;c0-0.1,0-0.2,0.1-0.3l2.5-2.5c0.2-0.2,0.5-0.2,0.7,0l1.8,1.8c0.6-0.3,1.3-0.5,2-0.7v-2.5c0-0.3,0.2-0.5,0.5-0.5h2.6&#10;&#9;&#9;&#9;&#9;&#9;c0.3,0,0.5,0.2,0.5,0.5v2.5c0.7,0.2,1.4,0.4,2,0.7l1.8-1.8c0.2-0.2,0.5-0.2,0.7,0l2.5,2.5c0.1,0.1,0.1,0.2,0.1,0.3&#10;&#9;&#9;&#9;&#9;&#9;c0,0.1,0,0.2-0.1,0.3l-1.8,1.8c0.3,0.6,0.5,1.3,0.7,2h2.5c0.3,0,0.5,0.2,0.5,0.5v2.6c0,0.3-0.2,0.5-0.5,0.5h-2.5&#10;&#9;&#9;&#9;&#9;&#9;c-0.2,0.7-0.4,1.4-0.7,2l1.8,1.8c0.2,0.2,0.2,0.5,0,0.7l-2.5,2.5c-0.2,0.2-0.5,0.2-0.7,0l-1.8-1.8c-0.6,0.3-1.3,0.5-2,0.7V43&#10;&#9;&#9;&#9;&#9;&#9;C283.3,43.3,283.1,43.5,282.8,43.5z M280.6,42.6h1.7v-2.4c0-0.2,0.1-0.4,0.4-0.5c0.5-0.1,1.8-0.4,2.4-0.8&#10;&#9;&#9;&#9;&#9;&#9;c0.2-0.1,0.4-0.1,0.6,0.1l1.7,1.7l1.8-1.8l-1.7-1.7c-0.2-0.2-0.2-0.4-0.1-0.6c0.4-0.6,0.7-1.9,0.8-2.4c0.1-0.2,0.2-0.4,0.5-0.4&#10;&#9;&#9;&#9;&#9;&#9;h2.4v-1.7h-2.4c-0.2,0-0.4-0.1-0.5-0.4c-0.1-0.5-0.4-1.8-0.8-2.4c-0.1-0.2-0.1-0.4,0.1-0.6l1.7-1.7l-1.8-1.8l-1.7,1.7&#10;&#9;&#9;&#9;&#9;&#9;c-0.2,0.2-0.4,0.2-0.6,0.1c-0.6-0.4-1.7-0.6-2.4-0.8c-0.2-0.1-0.4-0.2-0.4-0.5v-2.4h-1.7v2.4c0,0.2-0.1,0.4-0.4,0.5&#10;&#9;&#9;&#9;&#9;&#9;c-0.8,0.2-1.8,0.5-2.4,0.8c-0.2,0.1-0.4,0.1-0.6-0.1l-1.7-1.7l-1.8,1.8l1.7,1.7c0.2,0.2,0.2,0.4,0.1,0.6&#10;&#9;&#9;&#9;&#9;&#9;c-0.4,0.6-0.7,1.9-0.8,2.4c-0.1,0.2-0.2,0.4-0.5,0.4h-2.4v1.7h2.4c0.2,0,0.4,0.1,0.5,0.4c0.1,0.5,0.4,1.8,0.8,2.4&#10;&#9;&#9;&#9;&#9;&#9;c0.1,0.2,0.1,0.4-0.1,0.6l-1.7,1.7l1.8,1.8l1.7-1.7c0.2-0.2,0.4-0.2,0.6-0.1c0.6,0.4,1.9,0.7,2.4,0.8c0.2,0.1,0.4,0.2,0.4,0.5&#10;&#9;&#9;&#9;&#9;&#9;V42.6z"/>
			</g>
		</g><g transform="matrix(0.9999999999999999, 0, 0, 0.9999999999999999, -1.1368683772161603e-13, 0)">
				<path d="M 284.6 33 A 3.1 3.1 0 0 1 281.5 36.1 A 3.1 3.1 0 0 1 278.4 33 A 3.1 3.1 0 0 1 281.5 29.9 A 3.1 3.1 0 0 1 284.6 33 Z" class="st5" style="fill: rgb(8, 188, 167);"/>
			</g><g transform="matrix(0.9999999999999999, 0, 0, 0.9999999999999999, -8.526512829121202e-14, 0)">
			<g>
				<g>
					<path d="M53.2,168.6c0,0-0.1,0-0.1,0c-7.3-2-8.6-6.5-8.6-6.7c0,0,0-0.1,0-0.1v-12.3c0-0.2,0.1-0.3,0.3-0.4&#10;&#9;&#9;&#9;&#9;&#9;&#9;c0.2-0.1,0.3-0.1,0.5,0c1.5,1,2.7,1.5,3.9,1.5c1.5,0,2.8-0.7,3.8-1.8c0.2-0.2,0.6-0.2,0.7,0c0.9,1.2,2.3,1.8,3.8,1.8&#10;&#9;&#9;&#9;&#9;&#9;&#9;c1.2,0,2.4-0.5,3.9-1.5c0.1-0.1,0.3-0.1,0.5,0c0.2,0.1,0.3,0.2,0.3,0.4v12.3c0,0,0,0.1,0,0.1c-0.1,0.2-1.4,4.6-8.6,6.7&#10;&#9;&#9;&#9;&#9;&#9;&#9;C53.3,168.6,53.2,168.6,53.2,168.6z M45.4,161.7c0.2,0.5,1.6,4.2,7.8,5.9c6.2-1.8,7.7-5.5,7.8-5.9v-11.3&#10;&#9;&#9;&#9;&#9;&#9;&#9;c-1.3,0.8-2.5,1.2-3.7,1.2c-1.6,0-3-0.6-4.1-1.8c-1.1,1.1-2.6,1.8-4.1,1.8c-1.2,0-2.4-0.4-3.7-1.2V161.7z"/>
				</g>
			</g>
		</g><g transform="matrix(0.9999999999999999, 0, 0, 0.9999999999999999, -1.1368683772161603e-13, 0)">
				<path d="M 52.700001 149 H 53.600001 V 168.1 H 52.700001 V 149 Z"/>
			</g><g transform="matrix(0.8769801153743033, 0.4805277550533109, -0.4805277550533109, 0.8769801153743033, 97.48603788681123, -131.3884581004172)">
			<g>
				<path d="M 294.299988 115.599998 H 316.399988 V 133.799999 H 294.299988 V 115.599998 Z" class="st3" style="fill: rgb(240, 125, 40);"/>
			</g>
		</g><g transform="matrix(0.8756833785638746, 0.482887382127408, -0.482887382127408, 0.8756833785638746, 98.20051234441706, -131.94101108574773)">
				<g>
					<path d="M 304.899994 122.800003 H 305.799994 V 126.700003 H 304.899994 V 122.800003 Z" class="st4" style="fill: rgb(255, 255, 255);"/>
				</g>
			</g><g transform="matrix(0.8858039379119872, 0.46406000852584833, -0.46406000852584833, 0.8858039379119872, 92.66305513703011, -126.73310767183266)">
				<g>
					<path class="st3" d="M314.9,115.6v-4.6c0-5.2-4.3-9.5-9.5-9.5c-5.2,0-9.5,4.3-9.5,9.5v4.6h2.3v-4.5c0-3.9,3.2-7.1,7.1-7.1&#10;&#9;&#9;&#9;&#9;&#9;&#9;c3.9,0,7.1,3.2,7.1,7.1v4.5H314.9z" style="fill: rgb(240, 125, 40);"/>
				</g>
			</g><g transform="matrix(0.9999999999999999, 0, 0, 0.9999999999999999, -8.526512829121202e-14, 0)">
			<g>
				<path class="st6" d="M305.4,220.6c-3.6,0-6.5-2.9-6.5-6.5c0-3.6,2.9-6.5,6.5-6.5c3.6,0,6.5,2.9,6.5,6.5&#10;&#9;&#9;&#9;&#9;&#9;C311.8,217.6,308.9,220.6,305.4,220.6z M305.4,208.5c-3.1,0-5.5,2.5-5.5,5.5s2.5,5.5,5.5,5.5c3.1,0,5.5-2.5,5.5-5.5&#10;&#9;&#9;&#9;&#9;&#9;S308.4,208.5,305.4,208.5z" style="fill: rgb(29, 29, 27);"/>
			</g>
		</g><g transform="matrix(0.9999999999999999, 0, 0, 0.9999999999999999, -1.1368683772161603e-13, 0)">
				<g>
					<path d="M 254.1 48.400002 A 4.6 4.6 0 0 1 249.5 53.000001 A 4.6 4.6 0 0 1 244.9 48.400002 A 4.6 4.6 0 0 1 249.5 43.800002 A 4.6 4.6 0 0 1 254.1 48.400002 Z" class="st2" style="fill: rgb(51, 58, 74);"/>
				</g>
			</g><g transform="matrix(1, 0, 0, 1, 26.689656598672826, 3.552713678800501e-15)">
					<path d="M 88.799997 16 A 2.6 2.6 0 0 1 86.199997 18.6 A 2.6 2.6 0 0 1 83.599997 16 A 2.6 2.6 0 0 1 86.199997 13.4 A 2.6 2.6 0 0 1 88.799997 16 Z" class="st1" style="fill: rgb(3, 174, 208);"/>
				</g><g transform="matrix(0.9999999999999999, 0, 0, 0.9999999999999999, -1.4210854715202004e-13, 0)">
					<path d="M 308.499994 156 A 3.1 3.1 0 0 1 305.399994 159.1 A 3.1 3.1 0 0 1 302.299994 156 A 3.1 3.1 0 0 1 305.399994 152.9 A 3.1 3.1 0 0 1 308.499994 156 Z" class="st1" style="fill: rgb(3, 174, 208);"/>
				</g><g transform="matrix(1, 0, 0, 1, -27.06034660339354, 0.37068961077017093)">
					<path class="st5" d="M118,15.9c-3.2,1-4.1,1.8-5.1,5.1c-1-3.3-1.8-4.1-5.1-5.1c3.2-1,4.1-1.8,5.1-5.1&#10;&#9;&#9;&#9;&#9;&#9;&#9;C114,14.1,114.8,14.9,118,15.9z" style="fill: rgb(8, 188, 167);"/>
				</g><g transform="matrix(0.9999999999999999, 0, 0, 0.9999999999999999, -1.4210854715202004e-13, 0)">
					<path class="st3" d="M36,180.8c-4,1.3-5,2.3-6.3,6.3c-1.3-4-2.3-5-6.3-6.3c4-1.3,5-2.3,6.3-6.3C30.9,178.5,32,179.5,36,180.8z" style="fill: rgb(240, 125, 40);"/>
				</g><g transform="matrix(0.9999999999999999, 0, 0, 0.9999999999999999, -1.4210854715202004e-13, 0)">
					<path d="M 76.699997 128.600006 A 6 6 0 0 1 70.699997 134.600006 A 6 6 0 0 1 64.699997 128.600006 A 6 6 0 0 1 70.699997 122.600006 A 6 6 0 0 1 76.699997 128.600006 Z" class="st5" style="fill: rgb(8, 188, 167);"/>
				</g><g transform="matrix(0.9999999999999999, 0, 0, 0.9999999999999999, -8.526512829121202e-14, 0)">
			<path d="M 119.9000015258789 86.0999984741211 L 119 85.19999694824219 L 111.80000305175781 92.4000015258789 L 108.5 89.0999984741211 L 107.5999984741211 89.9000015258789 L 111.80000305175781 94.19999694824219 Z" class="st2" style="fill: rgb(51, 58, 74);"/>
		</g><g transform="matrix(0.9999999999999999, 0, 0, 0.9999999999999999, -8.526512829121202e-14, 0)">
			<g>
				<path d="M 69 18.700001 L 76.199997 18.700001 L 76.199997 44.900002 L 35.599998 44.900002 L 35.599998 35.599998" class="st5" style="fill: rgb(8, 188, 167);"/>
			</g>
		</g><g transform="matrix(0.9999999999999999, 0, 0, 0.9999999999999999, -1.1368683772161603e-13, 0)">
				<path d="M 28.5 9.2 H 69 V 35.400001 H 28.5 V 9.2 Z" class="st2" style="fill: rgb(51, 58, 74);"/>
			</g><g transform="matrix(0.9999999999999999, 0, 0, 0.9999999999999999, -8.526512829121202e-14, 0)">
			<g>
				<path d="M 219.399997 75.199997 A 10.7 10.7 0 0 1 208.699997 85.899997 A 10.7 10.7 0 0 1 197.999997 75.199997 A 10.7 10.7 0 0 1 208.699997 64.499997 A 10.7 10.7 0 0 1 219.399997 75.199997 Z" class="st1" style="fill: rgb(3, 174, 208);"/>
			</g>
		</g><g transform="matrix(0.6532625787214147, 0.7571325239104065, -0.7571325239104065, 0.6532625787214147, 130.39680160206225, -133.9325994668893)">
				<path class="st4" d="M214,80.9c-0.1,0-0.2,0-0.3-0.1l-5.3-5.3c-0.1-0.1-0.1-0.2-0.1-0.3v-4.8c0-0.3,0.2-0.5,0.5-0.5&#10;&#9;&#9;&#9;&#9;&#9;c0.3,0,0.5,0.2,0.5,0.5V75l5.1,5.1c0.2,0.2,0.2,0.5,0,0.7C214.2,80.9,214.1,80.9,214,80.9z" style="fill: rgb(255, 255, 255);"/>
			</g><g transform="matrix(0.9999999999999999, 0, 0, 0.9999999999999999, -1.1368683772161603e-13, 0)">
				<g>
					<path d="M 210.000006 58.900002 A 0.9 0.9 0 0 1 209.100006 59.800002 A 0.9 0.9 0 0 1 208.200006 58.900002 A 0.9 0.9 0 0 1 209.100006 58.000002 A 0.9 0.9 0 0 1 210.000006 58.900002 Z" class="st2" style="fill: rgb(51, 58, 74);"/>
				</g>
			</g><g transform="matrix(0.9999999999999999, 0, 0, 0.9999999999999999, -1.4210854715202004e-13, 0)">
					<path d="M 201.9 60.799999 A 0.9 0.9 0 0 1 201 61.699999 A 0.9 0.9 0 0 1 200.1 60.799999 A 0.9 0.9 0 0 1 201 59.899999 A 0.9 0.9 0 0 1 201.9 60.799999 Z" class="st2" style="fill: rgb(51, 58, 74);"/>
				</g><g transform="matrix(0.9999999999999999, 0, 0, 0.9999999999999999, -1.4210854715202004e-13, 0)">
					<path d="M 195.700003 66.400002 A 0.9 0.9 0 0 1 194.800003 67.300002 A 0.9 0.9 0 0 1 193.900003 66.400002 A 0.9 0.9 0 0 1 194.800003 65.500002 A 0.9 0.9 0 0 1 195.700003 66.400002 Z" class="st2" style="fill: rgb(51, 58, 74);"/>
				</g><g transform="matrix(0.9999999999999999, 0, 0, 0.9999999999999999, -1.4210854715202004e-13, 0)">
					<path d="M 193.200003 74.400002 A 0.9 0.9 0 0 1 192.300003 75.300002 A 0.9 0.9 0 0 1 191.400003 74.400002 A 0.9 0.9 0 0 1 192.300003 73.500002 A 0.9 0.9 0 0 1 193.200003 74.400002 Z" class="st2" style="fill: rgb(51, 58, 74);"/>
				</g><g transform="matrix(0.9999999999999999, 0, 0, 0.9999999999999999, -1.4210854715202004e-13, 0)">
					<path d="M 195.000006 82.599998 A 0.9 0.9 0 0 1 194.100006 83.499998 A 0.9 0.9 0 0 1 193.200006 82.599998 A 0.9 0.9 0 0 1 194.100006 81.699998 A 0.9 0.9 0 0 1 195.000006 82.599998 Z" class="st2" style="fill: rgb(51, 58, 74);"/>
				</g><g transform="matrix(0.9999999999999999, 0, 0, 0.9999999999999999, -1.4210854715202004e-13, 0)">
					<path d="M 200.700003 88.800003 A 0.9 0.9 0 0 1 199.800003 89.700003 A 0.9 0.9 0 0 1 198.900003 88.800003 A 0.9 0.9 0 0 1 199.800003 87.900003 A 0.9 0.9 0 0 1 200.700003 88.800003 Z" class="st2" style="fill: rgb(51, 58, 74);"/>
				</g><g transform="matrix(0.9999999999999999, 0, 0, 0.9999999999999999, -1.4210854715202004e-13, 0)">
					<path d="M 208.700003 91.300003 A 0.9 0.9 0 0 1 207.800003 92.200003 A 0.9 0.9 0 0 1 206.900003 91.300003 A 0.9 0.9 0 0 1 207.800003 90.400003 A 0.9 0.9 0 0 1 208.700003 91.300003 Z" class="st2" style="fill: rgb(51, 58, 74);"/>
				</g><g transform="matrix(0.9999999999999999, 0, 0, 0.9999999999999999, -1.4210854715202004e-13, 0)">
					<path d="M 216.9 89.5 A 0.9 0.9 0 0 1 216 90.4 A 0.9 0.9 0 0 1 215.1 89.5 A 0.9 0.9 0 0 1 216 88.6 A 0.9 0.9 0 0 1 216.9 89.5 Z" class="st2" style="fill: rgb(51, 58, 74);"/>
				</g><g transform="matrix(0.9999999999999999, 0, 0, 0.9999999999999999, -1.4210854715202004e-13, 0)">
					<path d="M 223.000006 83.800003 A 0.9 0.9 0 0 1 222.100006 84.700003 A 0.9 0.9 0 0 1 221.200006 83.800003 A 0.9 0.9 0 0 1 222.100006 82.900003 A 0.9 0.9 0 0 1 223.000006 83.800003 Z" class="st2" style="fill: rgb(51, 58, 74);"/>
				</g><g transform="matrix(0.9999999999999999, 0, 0, 0.9999999999999999, -1.4210854715202004e-13, 0)">
					<path d="M 225.599997 75.800003 A 0.9 0.9 0 0 1 224.699997 76.700003 A 0.9 0.9 0 0 1 223.799997 75.800003 A 0.9 0.9 0 0 1 224.699997 74.900003 A 0.9 0.9 0 0 1 225.599997 75.800003 Z" class="st2" style="fill: rgb(51, 58, 74);"/>
				</g><g transform="matrix(0.9999999999999999, 0, 0, 0.9999999999999999, -1.4210854715202004e-13, 0)">
					<path d="M 223.700003 67.599998 A 0.9 0.9 0 0 1 222.800003 68.499998 A 0.9 0.9 0 0 1 221.900003 67.599998 A 0.9 0.9 0 0 1 222.800003 66.699998 A 0.9 0.9 0 0 1 223.700003 67.599998 Z" class="st2" style="fill: rgb(51, 58, 74);"/>
				</g><g transform="matrix(0.9999999999999999, 0, 0, 0.9999999999999999, -1.4210854715202004e-13, 0)">
					<path d="M 218.000006 61.400002 A 0.9 0.9 0 0 1 217.100006 62.300002 A 0.9 0.9 0 0 1 216.200006 61.400002 A 0.9 0.9 0 0 1 217.100006 60.500002 A 0.9 0.9 0 0 1 218.000006 61.400002 Z" class="st2" style="fill: rgb(51, 58, 74);"/>
				</g><g transform="matrix(0.9999999999999999, 0, 0, 0.9999999999999999, -8.526512829121202e-14, 0)">
			<g>
				<g>
					<g>
						<g>
							<g>
								<path class="st6" d="M240.1,208.6H87c-0.3,0-0.5-0.2-0.5-0.5c0-0.1,0-16.6,0-16.7v-78c0-5.5,4.5-9.9,9.9-9.9h134.1&#10;&#9;&#9;&#9;&#9;&#9;&#9;&#9;&#9;&#9;c5.5,0,9.9,4.5,9.9,9.9v78c0,0.1,0,4.1,0,8.2c0,4.2,0,8.4,0,8.5C240.6,208.4,240.4,208.6,240.1,208.6z M87.5,207.6h152.1&#10;&#9;&#9;&#9;&#9;&#9;&#9;&#9;&#9;&#9;c0-1.2,0-4.6,0-8c0-4.1,0-8.2,0-8.2v-78c0-5-4-9-9-9H96.5c-5,0-9,4-9,9v78C87.5,191.5,87.5,205,87.5,207.6z" style="fill: rgb(29, 29, 27);"/>
							</g>
						</g>
					</g>
					<g>
						<g>
							<path class="st6" d="M228.5,199.2H97.9c-0.3,0-0.5-0.2-0.5-0.5v-84.3c0-0.3,0.2-0.5,0.5-0.5h130.6c0.3,0,0.5,0.2,0.5,0.5&#10;&#9;&#9;&#9;&#9;&#9;&#9;&#9;&#9;v84.3C229,199,228.8,199.2,228.5,199.2z M98.4,198.3h129.7V115H98.4V198.3z" style="fill: rgb(29, 29, 27);"/>
						</g>
					</g>
					<g>
						<g>
							<g>
								<path class="st6" d="M242,221.7H85.1c-6.4,0-11.6-5.2-11.6-11.6v-2c0-0.3,0.2-0.5,0.5-0.5h179.1c0.3,0,0.5,0.2,0.5,0.5v2&#10;&#9;&#9;&#9;&#9;&#9;&#9;&#9;&#9;&#9;C253.6,216.5,248.4,221.7,242,221.7z M74.5,208.6v1.6c0,5.9,4.8,10.6,10.6,10.6H242c5.9,0,10.6-4.8,10.6-10.6v-1.6H74.5z" style="fill: rgb(29, 29, 27);"/>
							</g>
						</g>
					</g>
				</g>
			</g>
		</g><g transform="matrix(0.9999999999999999, 0, 0, 0.9999999999999999, -1.1368683772161603e-13, 0)">
				<path d="M 106.400002 122.400002 H 192.700005 V 181.200001 H 106.400002 V 122.400002 Z" class="st3" style="fill: rgb(240, 125, 40);"/>
			</g><g transform="matrix(0.9999999999999999, 0, 0, 0.9999999999999999, -1.1368683772161603e-13, 0)">
				<path d="M 106.400002 181.300003 H 192.700005 V 191.100003 H 106.400002 V 181.300003 Z" class="st5" style="fill: rgb(8, 188, 167);"/>
			</g><g transform="matrix(0.9999999999999999, 0, 0, 0.9999999999999999, -1.1368683772161603e-13, 0)">
				<path class="st4" d="M149.6,168.9c-7.9,0-14.4-6.4-14.4-14.4c0-7.9,6.4-14.4,14.4-14.4c7.9,0,14.4,6.4,14.4,14.4&#10;&#9;&#9;&#9;&#9;&#9;C164,162.4,157.5,168.9,149.6,168.9z M149.6,141.1c-7.4,0-13.4,6-13.4,13.4c0,7.4,6,13.4,13.4,13.4s13.4-6,13.4-13.4&#10;&#9;&#9;&#9;&#9;&#9;C163,147.1,157,141.1,149.6,141.1z" style="fill: rgb(255, 255, 255);"/>
			</g><g transform="matrix(0.9999999999999999, 0, 0, 0.9999999999999999, -1.1368683772161603e-13, 0)">
				<path class="st4" d="M145.4,161.4v-13.8l11.6,6.9L145.4,161.4z M146.3,149.2v10.6l8.9-5.3L146.3,149.2z" style="fill: rgb(255, 255, 255);"/>
			</g><g transform="matrix(0.9999999999999999, 0, 0, 0.9999999999999999, -1.1368683772161603e-13, 0)">
				<path class="st6" d="M220.3,146.6h-23.7c-0.3,0-0.5-0.2-0.5-0.5v-23.7c0-0.3,0.2-0.5,0.5-0.5h23.7c0.3,0,0.5,0.2,0.5,0.5v23.7&#10;&#9;&#9;&#9;&#9;&#9;C220.8,146.4,220.5,146.6,220.3,146.6z M197.1,145.6h22.7v-22.7h-22.7V145.6z" style="fill: rgb(29, 29, 27);"/>
			</g><g transform="matrix(0.9999999999999999, 0, 0, 0.9999999999999999, -1.1368683772161603e-13, 0)">
				<path d="M 196.600006 157.600006 H 220.300007 V 181.300007 H 196.600006 V 157.600006 Z" class="st2" style="fill: rgb(51, 58, 74);"/>
			</g><g transform="matrix(0.9999999999999999, 0, 0, 0.9999999999999999, -1.1368683772161603e-13, 0)">
				<path d="M 191.699997 133.800003 H 225.199997 V 134.700003 H 191.699997 V 133.800003 Z" transform="matrix(0.7071 0.7071 -0.7071 0.7071 156.0057 -108.0754)"/>
			</g><g transform="matrix(0.9999999999999999, 0, 0, 0.9999999999999999, -1.1368683772161603e-13, 0)">
				<path d="M 208 117.5 H 208.9 V 151 H 208 V 117.5 Z" transform="matrix(0.7072 0.7071 -0.7071 0.7072 155.9874 -108.0714)"/>
			</g><g transform="matrix(0.9999999999999999, 0, 0, 0.9999999999999999, -1.1368683772161603e-13, 0)">
				<g>
					<path d="M 114.400002 185.899994 H 184.099998 V 186.799994 H 114.400002 V 185.899994 Z" class="st4" style="fill: rgb(255, 255, 255);"/>
				</g>
			</g><g transform="matrix(0.9999999999999999, 0, 0, 0.9999999999999999, -1.1368683772161603e-13, 0)">
				<path d="M 196.600006 149.899994 H 220.300007 V 150.799994 H 196.600006 V 149.899994 Z"/>
			</g><g transform="matrix(0.9999999999999999, 0, 0, 0.9999999999999999, -1.1368683772161603e-13, 0)">
				<path d="M 196.600006 152.899994 H 220.300007 V 153.799994 H 196.600006 V 152.899994 Z"/>
			</g><g transform="matrix(0.9999999999999999, 0, 0, 0.9999999999999999, -1.1368683772161603e-13, 0)">
				<path d="M 196.600006 184.399994 H 220.300007 V 185.299994 H 196.600006 V 184.399994 Z"/>
			</g><g transform="matrix(0.9999999999999999, 0, 0, 0.9999999999999999, -1.1368683772161603e-13, 0)">
				<path d="M 196.600006 187.399994 H 220.300007 V 188.299994 H 196.600006 V 187.399994 Z"/>
			</g><g transform="matrix(0.9999999999999999, 0, 0, 0.9999999999999999, -1.1368683772161603e-13, 0)">
				<path d="M 112.899998 186.399994 A 1.8 1.8 0 0 1 111.099998 188.199994 A 1.8 1.8 0 0 1 109.299999 186.399994 A 1.8 1.8 0 0 1 111.099998 184.599994 A 1.8 1.8 0 0 1 112.899998 186.399994 Z" class="st4" style="fill: rgb(255, 255, 255);"/>
			</g><g transform="matrix(0.9999999999999999, 0, 0, 0.9999999999999999, -1.1368683772161603e-13, 0)">
				<g>
					<path d="M 185.100006 184.600006 H 186.000006 V 188.200006 H 185.100006 V 184.600006 Z" class="st4" style="fill: rgb(255, 255, 255);"/>
				</g>
			</g><g transform="matrix(0.9999999999999999, 0, 0, 0.9999999999999999, -1.1368683772161603e-13, 0)">
				<g>
					<path d="M 187.100006 184.600006 H 188.000006 V 188.200006 H 187.100006 V 184.600006 Z" class="st4" style="fill: rgb(255, 255, 255);"/>
				</g>
			</g><g transform="matrix(0.9999999999999999, 0, 0, 0.9999999999999999, -1.1368683772161603e-13, 0)">
				<g>
					<path d="M 189.199997 184.600006 H 190.099997 V 188.200006 H 189.199997 V 184.600006 Z" class="st4" style="fill: rgb(255, 255, 255);"/>
				</g>
			</g><g transform="matrix(0.9999999999999999, 0, 0, 0.9999999999999999, -8.526512829121202e-14, 0)">
			<g>
				<path d="M53.2,176.9c-10.6,0-19.1-8.6-19.1-19.1c0-10.6,8.6-19.1,19.1-19.1c10.6,0,19.1,8.6,19.1,19.1&#10;&#9;&#9;&#9;&#9;&#9;C72.3,168.3,63.7,176.9,53.2,176.9z M53.2,139.6c-10,0-18.2,8.2-18.2,18.2c0,10,8.2,18.2,18.2,18.2c10,0,18.2-8.2,18.2-18.2&#10;&#9;&#9;&#9;&#9;&#9;C71.4,147.7,63.2,139.6,53.2,139.6z"/>
			</g>
		</g><g transform="matrix(0.9999999999999999, 0, 0, 0.9999999999999999, -1.1368683772161603e-13, 0)">
				<g>
					<path d="M269.6,198.4h-4v-1h4V198.4z M261.7,198.4h-4v-1h4V198.4z M253.8,198.4h-4v-1h4V198.4z M245.9,198.4h-4v-1h4V198.4z&#10;&#9;&#9;&#9;&#9;&#9;&#9; M273.6,198.4l-0.1-1c1.3-0.1,2.5-0.4,3.6-0.9l0.4,0.9C276.4,198,275,198.3,273.6,198.4z M280.9,194.9l-0.8-0.6&#10;&#9;&#9;&#9;&#9;&#9;&#9;c0.8-1,1.4-2.1,1.7-3.3l1,0.3C282.5,192.6,281.8,193.8,280.9,194.9z"/>
				</g>
			</g><g transform="matrix(0.9999999999999999, 0, 0, 0.9999999999999999, -1.4210854715202004e-13, 0)">
					<path d="M131,104.1h-0.9V74.2H98.6v-0.9h31.9c0.3,0,0.5,0.2,0.5,0.5V104.1z"/>
				</g><g transform="matrix(0.9999999999999999, 0, 0, 0.9999999999999999, -1.4210854715202004e-13, 0)">
					<path d="M169.8,102.5h-0.9v-5.1h0.9V102.5z M169.8,92.3h-0.9v-5.1h0.9V92.3z M169.8,82.1h-0.9V77h0.9V82.1z M169.8,71.9h-0.9&#10;&#9;&#9;&#9;&#9;&#9;&#9;v-5.1h0.9V71.9z M169.8,61.7h-0.9v-5.1h0.9V61.7z"/>
				</g><g transform="matrix(0.9999999999999999, 0, 0, 0.9999999999999999, -1.4210854715202004e-13, 0)">
					<path class="st7" d="M219.7,48.1c0-0.4,0.3-0.7,0.7-0.7h0.1c0.4,0,0.7,0.3,0.7,0.7c0,0.4-0.3,0.7-0.7,0.7h-0.1&#10;&#9;&#9;&#9;&#9;&#9;&#9;C220,48.8,219.7,48.5,219.7,48.1z M225.8,48.1c0-0.4,0.3-0.7,0.7-0.7h0.1c0.4,0,0.7,0.3,0.7,0.7c0,0.4-0.3,0.7-0.7,0.7h-0.1&#10;&#9;&#9;&#9;&#9;&#9;&#9;C226.1,48.8,225.8,48.5,225.8,48.1z" style="fill: rgb(48, 36, 28);"/>
				</g><g transform="matrix(0.9999999999999999, 0, 0, 0.9999999999999999, -1.4210854715202004e-13, 0)">
					<path class="st7" d="M231.6,48.1c0-0.4,0.3-0.7,0.7-0.7h0.1c0.4,0,0.7,0.3,0.7,0.7c0,0.4-0.3,0.7-0.7,0.7h-0.1&#10;&#9;&#9;&#9;&#9;&#9;&#9;C231.9,48.8,231.6,48.5,231.6,48.1z M237.7,48.1c0-0.4,0.3-0.7,0.7-0.7h0.1c0.4,0,0.7,0.3,0.7,0.7c0,0.4-0.3,0.7-0.7,0.7h-0.1&#10;&#9;&#9;&#9;&#9;&#9;&#9;C238,48.8,237.7,48.5,237.7,48.1z" style="fill: rgb(48, 36, 28);"/>
				</g><g transform="matrix(0.9999999999999999, 0, 0, 0.9999999999999999, -1.4210854715202004e-13, 0)">
					<path class="st7" d="M125,16.2c0-0.4,0.3-0.7,0.7-0.7h0.1c0.4,0,0.7,0.3,0.7,0.7c0,0.4-0.3,0.7-0.7,0.7h-0.1&#10;&#9;&#9;&#9;&#9;&#9;&#9;C125.2,16.8,125,16.5,125,16.2z M131.1,16.2c0-0.4,0.3-0.7,0.7-0.7h0.1c0.4,0,0.7,0.3,0.7,0.7c0,0.4-0.3,0.7-0.7,0.7h-0.1&#10;&#9;&#9;&#9;&#9;&#9;&#9;C131.4,16.8,131.1,16.5,131.1,16.2z" style="fill: rgb(48, 36, 28);"/>
				</g><g transform="matrix(0.9999999999999999, 0, 0, 0.9999999999999999, -1.4210854715202004e-13, 0)">
					<path d="M276.9,211l-0.1-0.9c1.1-0.1,2.2-0.2,3.3-0.4l0.2,0.9C279.2,210.8,278.1,211,276.9,211z M283.6,209.7l-0.3-0.9&#10;&#9;&#9;&#9;&#9;&#9;&#9;c1-0.4,2.1-0.8,3-1.3l0.4,0.8C285.7,208.9,284.7,209.3,283.6,209.7z M289.7,206.6l-0.5-0.8c0.9-0.6,1.8-1.3,2.6-2.1l0.6,0.7&#10;&#9;&#9;&#9;&#9;&#9;&#9;C291.5,205.2,290.6,205.9,289.7,206.6z M294.7,202l-0.7-0.6c0.7-0.8,1.3-1.8,1.9-2.7l0.8,0.5&#10;&#9;&#9;&#9;&#9;&#9;&#9;C296.1,200.1,295.4,201.1,294.7,202z M298.3,196.1l-0.9-0.4c0.4-1,0.8-2.1,1.1-3.1l0.9,0.3C299.1,194,298.7,195.1,298.3,196.1z&#10;&#9;&#9;&#9;&#9;&#9;&#9; M300.1,189.5l-0.9-0.1c0.1-1.1,0.2-2.2,0.2-3.3h0.9C300.4,187.3,300.3,188.4,300.1,189.5z"/>
				</g><g transform="matrix(0.9999999999999999, 0, 0, 0.9999999999999999, -1.4210854715202004e-13, 0)">
					<path d="M283.2,51.9l-0.1-1c1.3-0.1,2.5-0.4,3.8-0.7l0.3,0.9C285.9,51.5,284.5,51.8,283.2,51.9z M279.1,51.8&#10;&#9;&#9;&#9;&#9;&#9;&#9;c-1.3-0.2-2.7-0.5-3.9-0.9l0.3-0.9c1.2,0.4,2.5,0.7,3.7,0.9L279.1,51.8z M290.9,49.5l-0.5-0.9c1.1-0.6,2.2-1.4,3.1-2.2l0.7,0.7&#10;&#9;&#9;&#9;&#9;&#9;&#9;C293.2,48.1,292,48.9,290.9,49.5z M271.5,49.2c-1.2-0.7-2.2-1.5-3.2-2.5L269,46c0.9,0.9,2,1.7,3.1,2.3L271.5,49.2z M296.9,44.2&#10;&#9;&#9;&#9;&#9;&#9;&#9;l-0.8-0.6c0.8-1,1.4-2.1,1.9-3.3l0.9,0.4C298.4,41.9,297.7,43.1,296.9,44.2z M265.7,43.6c-0.8-1.1-1.4-2.3-1.9-3.6l0.9-0.4&#10;&#9;&#9;&#9;&#9;&#9;&#9;c0.5,1.2,1.1,2.3,1.8,3.4L265.7,43.6z M300.2,36.8l-1-0.2c0.3-1.2,0.4-2.5,0.4-3.8h1C300.6,34.2,300.5,35.5,300.2,36.8z&#10;&#9;&#9;&#9;&#9;&#9;&#9; M262.6,36.2c-0.2-1.1-0.3-2.2-0.3-3.4c0-0.2,0-0.4,0-0.7l1,0c0,0.2,0,0.4,0,0.6c0,1.1,0.1,2.1,0.3,3.2L262.6,36.2z&#10;&#9;&#9;&#9;&#9;&#9;&#9; M299.5,30.3c-0.2-1.3-0.5-2.5-0.9-3.7l0.9-0.3c0.5,1.3,0.8,2.6,1,3.9L299.5,30.3z M263.9,28.4l-1-0.2c0.3-1.3,0.8-2.6,1.4-3.8&#10;&#9;&#9;&#9;&#9;&#9;&#9;l0.9,0.4C264.6,25.9,264.2,27.1,263.9,28.4z M296.8,23.1c-0.7-1.1-1.5-2.1-2.4-3l0.7-0.7c0.9,1,1.8,2,2.5,3.2L296.8,23.1z&#10;&#9;&#9;&#9;&#9;&#9;&#9; M267.2,21.5l-0.8-0.6c0.8-1.1,1.8-2,2.8-2.9l0.6,0.8C268.9,19.6,268,20.5,267.2,21.5z M291.5,17.6c-1.1-0.7-2.2-1.3-3.4-1.8&#10;&#9;&#9;&#9;&#9;&#9;&#9;l0.4-0.9c1.3,0.5,2.5,1.1,3.6,1.9L291.5,17.6z M273.1,16.7l-0.5-0.9c1.2-0.6,2.5-1.1,3.8-1.5l0.3,1&#10;&#9;&#9;&#9;&#9;&#9;&#9;C275.5,15.6,274.3,16.1,273.1,16.7z M284.4,14.9c-1.3-0.2-2.6-0.3-3.8-0.2l-0.1-1c1.4-0.1,2.7,0,4,0.2L284.4,14.9z"/>
				</g><g transform="matrix(0.9999999999999999, 0, 0, 0.9999999999999999, -1.4210854715202004e-13, 0)">
					<path class="st6" d="M281.3,134.1h-41.2c-0.3,0-0.5-0.2-0.5-0.5s0.2-0.5,0.5-0.5h40.7V93.3c0-0.3,0.2-0.5,0.5-0.5&#10;&#9;&#9;&#9;&#9;&#9;&#9;c0.3,0,0.5,0.2,0.5,0.5v40.3C281.8,133.9,281.6,134.1,281.3,134.1z" style="fill: rgb(29, 29, 27);"/>
				</g><g transform="matrix(0.9999999999999999, 0, 0, 0.9999999999999999, -1.4210854715202004e-13, 0)">
					<path d="M53.7,139.1h-1v-3.2h1V139.1z M53.7,132h-1v-4h1V132z M53.7,124.1h-1v-4h1V124.1z M53.7,116.1h-1v-4h1V116.1z&#10;&#9;&#9;&#9;&#9;&#9;&#9; M53.7,108.2h-1v-4h1V108.2z M53.7,100.3h-1v-4h1V100.3z M53.7,92.4h-1v-4h1V92.4z"/>
				</g><g transform="matrix(0.9999999999999999, 0, 0, 0.9999999999999999, -1.4210854715202004e-13, 0)">
					<path d="M 191.899994 33.599998 H 262.099991 V 34.499998 H 191.899994 V 33.599998 Z"/>
				</g><g transform="matrix(0.9999999999999999, 0, 0, 0.9999999999999999, -1.4210854715202004e-13, 0)">
					<g>
						<path d="M 17.5 220.899994 H 56.299999 V 221.699994 H 17.5 V 220.899994 Z"/>
					</g>
				</g><g transform="matrix(0.9999999999999999, 0, 0, 0.9999999999999999, -1.4210854715202004e-13, 0)">
					<g>
						<path class="st7" d="M249.2,143c0-0.4,0.3-0.8,0.8-0.8h0.1c0.4,0,0.8,0.3,0.8,0.8c0,0.4-0.3,0.8-0.8,0.8h-0.1&#10;&#9;&#9;&#9;&#9;&#9;&#9;&#9;C249.5,143.8,249.2,143.4,249.2,143z" style="fill: rgb(48, 36, 28);"/>
					</g>
				</g><g transform="matrix(0.9999999999999999, 0, 0, 0.9999999999999999, -1.9895196601282805e-13, 0)">
						<path class="st7" d="M256.2,143c0-0.4,0.3-0.8,0.8-0.8h0.2c0.4,0,0.8,0.3,0.8,0.8c0,0.4-0.3,0.8-0.8,0.8h-0.2&#10;&#9;&#9;&#9;&#9;&#9;&#9;&#9;C256.5,143.8,256.2,143.4,256.2,143z M263.3,143c0-0.4,0.3-0.8,0.8-0.8h0.2c0.4,0,0.8,0.3,0.8,0.8c0,0.4-0.3,0.8-0.8,0.8H264&#10;&#9;&#9;&#9;&#9;&#9;&#9;&#9;C263.6,143.8,263.3,143.4,263.3,143z" style="fill: rgb(48, 36, 28);"/>
					</g><g transform="matrix(0.9999999999999999, 0, 0, 0.9999999999999999, -1.9895196601282805e-13, 0)">
						<path class="st7" d="M270.3,143c0-0.4,0.3-0.8,0.8-0.8h0.1c0.4,0,0.8,0.3,0.8,0.8c0,0.4-0.3,0.8-0.8,0.8h-0.1&#10;&#9;&#9;&#9;&#9;&#9;&#9;&#9;C270.7,143.8,270.3,143.4,270.3,143z" style="fill: rgb(48, 36, 28);"/>
					</g><g transform="matrix(0.9999999999999999, 0, 0, 0.9999999999999999, -1.4210854715202004e-13, 0)">
					<g>
						<path class="st7" d="M270.3,210.6c0-0.4,0.3-0.8,0.8-0.8h0.1c0.4,0,0.8,0.3,0.8,0.8c0,0.4-0.3,0.8-0.8,0.8h-0.1&#10;&#9;&#9;&#9;&#9;&#9;&#9;&#9;C270.7,211.4,270.3,211,270.3,210.6z" style="fill: rgb(48, 36, 28);"/>
					</g>
				</g><g transform="matrix(0.9999999999999999, 0, 0, 0.9999999999999999, -1.4210854715202004e-13, 0)">
					<g>
						<path class="st7" d="M264.4,210.6c0-0.4,0.3-0.8,0.8-0.8h0.1c0.4,0,0.8,0.3,0.8,0.8c0,0.4-0.3,0.8-0.8,0.8h-0.1&#10;&#9;&#9;&#9;&#9;&#9;&#9;&#9;C264.7,211.4,264.4,211,264.4,210.6z" style="fill: rgb(48, 36, 28);"/>
					</g>
				</g><g transform="matrix(0.9999999999999999, 0, 0, 0.9999999999999999, -1.4210854715202004e-13, 0)">
					<g>
						<path class="st7" d="M258.4,210.6c0-0.4,0.3-0.8,0.8-0.8h0.1c0.4,0,0.8,0.3,0.8,0.8c0,0.4-0.3,0.8-0.8,0.8h-0.1&#10;&#9;&#9;&#9;&#9;&#9;&#9;&#9;C258.8,211.4,258.4,211,258.4,210.6z" style="fill: rgb(48, 36, 28);"/>
					</g>
				</g><g transform="matrix(0.9999999999999999, 0, 0, 0.9999999999999999, -1.4210854715202004e-13, 0)">
					<path d="M 278.399994 142.5 H 296.099995 V 143.4 H 278.399994 V 142.5 Z"/>
				</g><g transform="matrix(0.9999999999999999, 0, 0, 0.9999999999999999, -1.4210854715202004e-13, 0)">
					<path d="M 33.099998 209 H 48.799998 V 209.9 H 33.099998 V 209 Z"/>
				</g><g transform="matrix(0.9999999999999999, 0, 0, 0.9999999999999999, -1.4210854715202004e-13, 0)">
					<g>
						<path class="st7" d="M55.1,209.5c0-0.4,0.3-0.8,0.8-0.8H56c0.4,0,0.8,0.3,0.8,0.8c0,0.4-0.3,0.8-0.8,0.8h-0.1&#10;&#9;&#9;&#9;&#9;&#9;&#9;&#9;C55.5,210.2,55.1,209.9,55.1,209.5z" style="fill: rgb(48, 36, 28);"/>
					</g>
				</g><g transform="matrix(0.9999999999999999, 0, 0, 0.9999999999999999, -1.4210854715202004e-13, 0)">
					<path d="M 201 47.599998 H 216.2 V 48.599998 H 201 V 47.599998 Z"/>
				</g><g transform="matrix(0.9999999999999999, 0, 0, 0.9999999999999999, -1.4210854715202004e-13, 0)">
					<path class="st7" d="M25.9,132.7c0-0.4,0.3-0.7,0.7-0.7h0.1c0.4,0,0.7,0.3,0.7,0.7c0,0.4-0.3,0.7-0.7,0.7h-0.1&#10;&#9;&#9;&#9;&#9;&#9;&#9;C26.2,133.4,25.9,133.1,25.9,132.7z M32,132.7c0-0.4,0.3-0.7,0.7-0.7h0.1c0.4,0,0.7,0.3,0.7,0.7c0,0.4-0.3,0.7-0.7,0.7h-0.1&#10;&#9;&#9;&#9;&#9;&#9;&#9;C32.3,133.4,32,133.1,32,132.7z" style="fill: rgb(48, 36, 28);"/>
				</g><g transform="matrix(0.9999999999999999, 0, 0, 0.9999999999999999, -1.4210854715202004e-13, 0)">
					<g>
						<path d="M 256 220.100006 H 294.799999 V 220.900006 H 256 V 220.100006 Z"/>
					</g>
				</g><path d="M 307.100006 17.700001 H 317.500006 V 18.600001 H 307.100006 V 17.700001 Z" class="st1" style="fill: rgb(3, 174, 208);" transform="matrix(0.9999999999999999, 0, 0, 0.9999999999999999, -1.4210854715202004e-13, 0)"/><path d="M136,57.1h-10.4c-0.3,0-0.5-0.2-0.5-0.5s0.2-0.5,0.5-0.5H136c0.3,0,0.5,0.2,0.5,0.5S136.3,57.1,136,57.1z" transform="matrix(0.9999999999999999, 0, 0, 0.9999999999999999, -1.4210854715202004e-13, 0)"/><path d="M146.7,57.1h-6.3c-0.3,0-0.5-0.2-0.5-0.5s0.2-0.5,0.5-0.5h6.3c0.3,0,0.5,0.2,0.5,0.5S146.9,57.1,146.7,57.1z" transform="matrix(0.9999999999999999, 0, 0, 0.9999999999999999, -1.4210854715202004e-13, 0)"/>

<g id="graphic">
</g>

<g id="texts">
</g>
</svg>